<svg width="67" height="67" viewBox="0 0 67 67" fill="none" xmlns="http://www.w3.org/2000/svg">
<circle r="33.5" transform="matrix(-1 0 0 1 33.5 33.5)" fill="white"/>
<path d="M44.556 32.3684L31.6507 19.4633C31.3522 19.1646 30.9537 19 30.5289 19C30.104 19 29.7056 19.1646 29.4071 19.4633L28.4567 20.4134C27.8383 21.0326 27.8383 22.0388 28.4567 22.657L39.2937 33.494L28.4447 44.343C28.1462 44.6417 27.9814 45.0399 27.9814 45.4645C27.9814 45.8896 28.1462 46.2878 28.4447 46.5868L29.3951 47.5367C29.6938 47.8354 30.092 48 30.5169 48C30.9417 48 31.3402 47.8354 31.6387 47.5367L44.556 34.6198C44.8552 34.3201 45.0196 33.92 45.0186 33.4947C45.0196 33.0677 44.8552 32.6678 44.556 32.3684Z" fill="#454545"/>
</svg>
