<svg width="67" height="67" viewBox="0 0 67 67" fill="none" xmlns="http://www.w3.org/2000/svg">
<circle cx="33.5" cy="33.5" r="33.5" fill="white"/>
<path d="M22.444 32.3684L35.3493 19.4633C35.6478 19.1646 36.0463 19 36.4711 19C36.896 19 37.2944 19.1646 37.5929 19.4633L38.5433 20.4134C39.1617 21.0326 39.1617 22.0388 38.5433 22.657L27.7063 33.494L38.5553 44.343C38.8538 44.6417 39.0186 45.0399 39.0186 45.4645C39.0186 45.8896 38.8538 46.2878 38.5553 46.5868L37.6049 47.5367C37.3062 47.8354 36.908 48 36.4831 48C36.0583 48 35.6598 47.8354 35.3613 47.5367L22.444 34.6198C22.1448 34.3201 21.9804 33.92 21.9814 33.4947C21.9804 33.0677 22.1448 32.6678 22.444 32.3684Z" fill="#454545"/>
</svg>
