<svg width="65" height="64" viewBox="0 0 65 64" fill="none" xmlns="http://www.w3.org/2000/svg">
<circle cx="32.5" cy="32" r="32" fill="white"/>
<g clip-path="url(#clip0)">
<path d="M18.4747 23.023C18.6679 22.7581 18.9764 22.6013 19.3043 22.6013H42.4058C42.4506 22.6013 42.4953 22.604 42.5383 22.6098L43.489 19.8692C43.5876 19.5858 43.8046 19.3598 44.0834 19.25L48.875 17.3677C49.403 17.161 49.9989 17.4204 50.2063 17.9478C50.4134 18.4755 50.154 19.0718 49.6263 19.2792L45.2744 20.9887L39.9478 36.3426C40.1829 36.4245 40.3821 36.6049 40.4728 36.8573L42.0129 41.1354C42.1073 41.3977 42.0684 41.6892 41.9078 41.9171C41.7474 42.1451 41.4865 42.2808 41.2079 42.2808H40.417C40.9072 42.8262 41.2079 43.5445 41.2079 44.3343C41.2079 46.0328 39.8259 47.4146 38.1277 47.4146C36.4295 47.4146 35.0475 46.0328 35.0475 44.3343C35.0475 43.5445 35.3482 42.8262 35.8384 42.2808H29.1227C29.6131 42.8262 29.9139 43.5445 29.9139 44.3343C29.9139 46.0328 28.5322 47.4146 26.8336 47.4146C25.1351 47.4146 23.7534 46.0328 23.7534 44.3343C23.7534 43.5445 24.0541 42.8262 24.5442 42.2808H23.5822C23.1096 42.2808 22.7266 41.8977 22.7266 41.4252C22.7266 40.9526 23.1097 40.5696 23.5822 40.5696H39.9905L39.0367 37.9202C38.9135 37.972 38.7805 38.0027 38.6412 38.0027H23.5824C23.136 38.0027 22.7409 37.7143 22.6049 37.2895L18.3268 23.9416C18.2264 23.6291 18.2815 23.2879 18.4747 23.023ZM38.1277 45.7033C38.8827 45.7033 39.4967 45.0893 39.4967 44.3343C39.4967 43.5793 38.8827 42.9653 38.1277 42.9653C37.3727 42.9653 36.7587 43.5793 36.7587 44.3343C36.7587 45.0893 37.3727 45.7033 38.1277 45.7033ZM26.8337 45.7033C27.5887 45.7033 28.2027 45.0893 28.2027 44.3343C28.2027 43.5793 27.5887 42.9653 26.8337 42.9653C26.0787 42.9653 25.4647 43.5793 25.4647 44.3343C25.4647 45.0893 26.0787 45.7033 26.8337 45.7033ZM21.4517 26.965H26.691V24.6548H20.7114L21.4517 26.965ZM22.9604 31.6709H26.691V29.0185H22.1101L22.9604 31.6709ZM33.4791 31.6709V29.0185H28.7445V31.6709H33.4791ZM28.7445 33.7246V35.9492H33.4791V33.7246H28.7445ZM40.3151 29.0185H35.5324V31.6709H39.3948L40.3151 29.0185ZM33.4791 26.965V24.6548H28.7445V26.965H33.4791ZM35.5325 24.6548V26.965H41.0277L41.8291 24.6548H35.5325ZM38.6822 33.7246H35.5325V35.9492H37.9105L38.6822 33.7246ZM26.691 35.9492V33.7246H23.6182L24.3311 35.9492H26.691Z" fill="black"/>
</g>
<defs>
<clipPath id="clip0">
<rect width="32" height="32" fill="white" transform="translate(18.2776 16.3556)"/>
</clipPath>
</defs>
</svg>
