<svg width="106" height="106" viewBox="0 0 106 106" fill="none" xmlns="http://www.w3.org/2000/svg">
<circle cx="53" cy="53" r="53" fill="black" fill-opacity="0.6"/>
<g clip-path="url(#clip0)">
<path d="M77.3891 74.4443L63.1705 60.2257C65.9246 56.8236 67.5829 52.5007 67.5829 47.7925C67.5829 36.8801 58.7038 28.001 47.7914 28.001C36.879 28.001 28 36.88 28 47.7924C28 58.7048 36.8791 67.5839 47.7915 67.5839C52.4998 67.5839 56.8227 65.9256 60.2247 63.1714L74.4433 77.3901C74.8495 77.7963 75.3828 78.0005 75.9162 78.0005C76.4496 78.0005 76.9829 77.7963 77.3892 77.3901C78.2037 76.5755 78.2037 75.2588 77.3891 74.4443ZM47.7915 63.4172C39.1749 63.4172 32.1667 56.409 32.1667 47.7924C32.1667 39.1758 39.1749 32.1675 47.7915 32.1675C56.4081 32.1675 63.4164 39.1758 63.4164 47.7924C63.4164 56.409 56.408 63.4172 47.7915 63.4172Z" fill="white"/>
</g>
<defs>
<clipPath id="clip0">
<rect width="50" height="50" fill="white" transform="translate(28 28)"/>
</clipPath>
</defs>
</svg>
