<svg width="70" height="70" viewBox="0 0 70 70" fill="none" xmlns="http://www.w3.org/2000/svg">
<path d="M2.86641 16.172C2.96701 16.0628 3.0728 15.9478 3.16764 15.8423C2.73816 16.0057 2.41811 16.08 2.15585 16.08C1.18744 16.08 1.18745 15.0308 1.18745 14.686C1.18745 12.9037 6.65266 11.0074 14.1828 10.1775C14.6773 10.1229 15.1775 10.0953 15.6691 10.0953C22.5403 10.0953 27.2958 15.4444 29.0859 17.4581C29.241 17.6325 29.3756 17.7838 29.4891 17.9068C30.4371 18.9342 32.2436 22.3055 33.695 25.0145C34.4566 26.436 35.2434 27.905 35.435 28.1125C35.4563 28.1165 35.504 28.1223 35.5965 28.1223C36.669 28.1223 40.6697 27.3733 43.7517 25.604C45.8379 24.4063 47.0161 21.7394 48.3804 18.6514C49.2261 16.7366 50.1848 14.5668 51.482 12.5211C53.7775 8.90167 57.0907 7.18623 58.6831 6.36163C59.0286 6.18269 59.3838 5.99877 59.538 5.88587C58.2405 5.09813 56.1265 3.61308 55.8143 2.14205C55.7585 1.87806 55.7892 1.67128 55.9061 1.52691C56.0159 1.39155 56.1901 1.32282 56.4243 1.32282C56.9924 1.32282 57.888 1.72888 58.6076 2.05507C58.7846 2.13533 58.9854 2.22633 59.1469 2.29314C59.0563 2.17104 58.9424 2.02858 58.8468 1.90897C58.2906 1.21319 57.9026 0.69232 57.9777 0.325041C58.0023 0.204471 58.0739 0.109051 58.185 0.0491498C58.2459 0.0167032 58.315 0 58.3903 0C58.848 0 59.5178 0.638371 60.4144 1.54015C60.6754 1.80299 60.9837 2.11286 61.1789 2.27394C61.1501 2.13782 61.097 1.95927 61.0565 1.82353C60.8975 1.2898 60.733 0.73763 60.9704 0.419117C61.0417 0.323697 61.1816 0.210038 61.4447 0.210038C61.983 0.210038 62.4549 1.11681 63.0631 2.39778C63.2142 2.71629 63.3951 3.09759 63.5088 3.2746C63.5594 3.12293 63.6044 2.83686 63.6364 2.63201C63.7399 1.97156 63.8378 1.34759 64.2767 1.34759C64.6772 1.34759 64.9047 2.00996 65.2422 3.09106C65.3692 3.4975 65.5577 4.10055 65.6744 4.24205C65.8 4.18522 66.0674 3.84635 66.2314 3.63862C66.5727 3.20625 66.8675 2.83283 67.1768 2.83283C67.1954 2.83283 67.2138 2.83437 67.2319 2.83686C67.5972 2.89196 67.5901 3.4017 67.5809 4.04737C67.5769 4.34131 67.5671 5.02959 67.6901 5.08662C67.7287 5.09103 67.7641 5.09314 67.7965 5.09314C67.9775 5.09314 68.0357 5.0294 68.1415 4.91344C68.2154 4.83223 68.3076 4.73143 68.4522 4.65579C68.6658 4.54443 68.8692 4.57246 69.0083 4.72433C69.3568 5.1037 69.2879 6.23856 69.133 8.06267C69.0978 8.47507 69.0648 8.865 69.0435 9.21942C68.9972 9.99295 68.7244 10.5336 68.2335 10.8364C68.3552 11.2061 68.4967 11.6938 68.5764 12.1671C68.6718 12.7344 68.6637 13.4784 68.4842 13.6909C68.4364 13.7475 68.3723 13.7788 68.3035 13.7788C68.2467 13.7788 68.1413 13.7567 68.0701 13.6087C67.7902 13.0266 67.445 12.7882 67.0842 12.6634C67.3136 13.0095 67.2514 13.5467 67.1472 14.4053C67.0917 14.8628 67.0228 15.4321 66.9813 16.1152C66.8438 18.3858 65.4661 19.0745 64.8778 19.3685C64.8316 19.3917 64.8049 19.4145 64.7987 19.4364C64.76 19.5773 65.0362 20.0097 65.3563 20.5106C65.7449 21.1183 66.2771 21.9507 66.8732 23.1432C68.2079 25.8125 68.6127 30.4798 67.9555 35.6278C67.4484 39.599 59.3017 47.7236 54.925 52.0886C54.206 52.8055 53.5851 53.4246 53.1113 53.9121C52.8394 54.1918 52.5674 54.4447 52.2951 54.6739C54.2467 58.1104 56.5929 62.1936 56.8079 62.4294C56.8119 62.4329 56.8248 62.4365 56.8476 62.4365C56.9755 62.4365 57.2101 62.3303 57.437 62.228C57.6985 62.1097 57.995 61.9759 58.2935 61.9152C58.4413 61.8855 58.556 61.8709 58.6439 61.8709C58.8779 61.8709 58.9455 61.9901 58.9651 62.0612C59.0091 62.2224 58.9672 62.3933 58.0618 62.947C58.4072 63.0551 59.1162 63.193 59.6657 63.2999C60.5602 63.4738 61.485 63.6539 61.9851 63.8536C63.413 64.4238 63.5495 64.5872 63.5084 64.8018C63.4648 65.0286 63.1655 65.0286 63.0217 65.0286C62.779 65.0286 62.4083 64.9934 61.8876 64.9211C59.8972 64.6448 59.4073 64.639 58.7921 64.65C58.7144 64.6513 58.6341 64.6527 58.5471 64.6536C58.5826 64.6792 58.6191 64.7051 58.6545 64.73C59.2172 65.1305 60.1589 65.8008 60.4369 66.8191C60.4793 66.9748 60.493 67.0973 60.4219 67.1906C60.3797 67.2457 60.315 67.2774 60.2445 67.2774C60.1076 67.2774 59.9882 67.1676 59.7267 66.9264C59.5084 66.7252 59.237 66.475 58.9511 66.2988C58.3834 65.9492 55.6452 64.5914 54.9394 64.4908C54.8818 64.4826 54.8212 64.4785 54.7589 64.4785C54.4159 64.4785 54.0609 64.5997 53.7176 64.717C53.4129 64.821 53.1253 64.9193 52.8701 64.9193C52.6887 64.9193 52.6206 64.8233 52.5962 64.7659C52.5132 64.5714 52.6874 64.3902 53.0343 64.0289C53.3885 63.6601 53.924 63.1025 53.924 62.7036C53.924 62.5532 53.7045 62.0936 53.3446 61.4418C52.7812 61.3733 52.1008 61.1824 51.4435 60.7236C50.7037 60.2071 50.6043 60.0401 50.6605 59.8613C50.6812 59.7951 50.7479 59.6843 50.9606 59.6843C51.1658 59.6843 51.5316 59.7809 51.9184 59.8832L52.1371 59.9408C52.2506 59.9702 52.3733 59.985 52.5013 59.9855C51.786 58.7889 50.8894 57.3558 50.0223 56.0004C49.4911 56.1766 48.9535 56.2663 48.406 56.2663C47.6941 56.2663 47.0284 56.1175 46.4164 55.9096C46.4768 59.8183 46.6421 65.4028 46.8802 66.4075C46.9424 66.3643 47.0175 66.3097 47.0837 66.2615C47.4811 65.9722 48.0254 65.5763 48.4561 65.5512C48.544 65.5512 48.6189 65.5994 48.6513 65.6766C48.7108 65.8182 48.6162 65.9142 48.4449 66.0886C48.3706 66.1642 48.1915 66.3464 48.1329 66.452C48.204 66.4645 48.3873 66.4616 48.62 66.4253C48.8804 66.3848 49.1826 66.3643 49.5176 66.3643C50.9235 66.3643 52.6242 66.7231 53.2643 66.8583C53.3417 66.8746 53.4043 66.8876 53.4498 66.8967C53.6343 66.9335 53.7237 67.018 53.7157 67.1478C53.7036 67.3371 53.6982 67.4231 51.7599 67.631C50.8258 67.7312 49.6785 67.8272 48.9558 67.8789C48.5142 67.9106 48.2883 67.9549 48.175 67.9899C48.2769 68.0471 48.4822 68.1338 48.8875 68.2496C50.0594 68.5846 51.0009 69.2148 51.4143 69.6986C51.502 69.8013 51.473 69.8794 51.4565 69.9153L51.3928 69.999H51.2699C51.1893 69.999 51.0919 69.9912 50.7667 69.851C50.4232 69.7028 49.953 69.5325 49.4882 69.3956C48.7201 69.1698 47.7388 68.9154 46.2837 68.7409C45.3904 68.6336 45.1099 68.4063 44.9052 68.2404C44.7979 68.1534 44.7439 68.1097 44.6178 68.0956C44.4154 68.0743 44.0303 68.2504 43.691 68.4032C43.29 68.5835 42.9089 68.7496 42.6537 68.7185C42.5285 68.7029 42.4345 68.6326 42.3963 68.5259C42.3008 68.26 42.5166 67.8453 43.9612 66.3157C44.1052 66.1631 44.1933 65.642 44.2394 64.8796C43.7279 64.6534 43.1231 64.2723 42.6203 63.6286C42.0902 62.9503 42.0326 62.7581 42.1073 62.6047C42.1482 62.521 42.2323 62.4713 42.3329 62.4713C42.5182 62.4713 42.8138 62.6496 43.3203 62.9645L43.5135 63.0841C43.7225 63.2127 43.9808 63.288 44.2795 63.3135C44.2812 60.8297 44.0708 57.2911 43.8408 54.5013C43.4368 54.0705 43.0999 53.5425 42.7701 53.0243C42.1192 52.0022 41.5046 51.0364 40.4896 51.0364C40.3174 51.0364 40.1329 51.0639 39.9413 51.1182C39.4453 51.259 38.9571 51.3244 38.4049 51.3244C38.0569 51.3244 37.7197 51.2999 37.3624 51.2738C36.9779 51.2457 36.5805 51.2169 36.1387 51.2169C35.0998 51.2169 34.0729 51.3886 32.9069 51.7566C32.2564 51.962 31.7043 52.0663 31.2659 52.0663C30.4849 52.0663 30.175 51.7338 30.0529 51.4546C29.6647 50.5693 30.5792 49.1106 31.5645 48.0408C32.7387 46.7656 33.6092 45.9362 34.1852 45.3873C34.4676 45.1183 34.7212 44.8766 34.8449 44.733C34.7333 44.7286 34.5279 44.7336 34.2791 44.7422C34.0097 44.7514 33.6745 44.7629 33.2724 44.7629C31.3462 44.7629 29.3629 44.4838 27.2092 43.9094C25.8648 43.5511 25.6057 43.166 24.8365 42.023C24.7325 41.8683 24.6184 41.699 24.4902 41.5125C24.1794 41.0604 24.0004 40.7734 23.882 40.5835C23.6994 40.2905 23.6994 40.2905 23.5258 40.2354C23.4521 40.2122 23.3569 40.1818 23.2275 40.1335C22.9473 40.0282 22.5774 39.9641 22.1855 39.8964C21.5207 39.781 20.7671 39.6506 20.1032 39.277C19.6628 39.0291 19.2966 38.9976 18.9733 38.9696C18.5651 38.9345 18.1796 38.9013 17.8509 38.4491C17.6063 38.1129 17.5664 37.7257 17.5309 37.3841C17.4802 36.8938 17.4359 36.6329 17.0513 36.5233C16.7854 36.4472 16.6145 36.3295 16.5283 36.1635C16.3887 35.8939 16.5003 35.5752 16.6416 35.1716C16.741 34.8877 16.8535 34.5659 16.9144 34.1819C17.0144 33.548 16.8818 33.4677 16.4427 33.2018C16.1654 33.0338 15.7855 32.8038 15.3533 32.3461C14.5913 31.5394 14.872 30.9766 15.0577 30.6044C15.1815 30.3561 15.2207 30.2509 15.1398 30.1296C13.5321 27.718 12.9102 26.4648 12.6714 25.8382C12.3945 25.1113 12.5124 24.6403 12.637 24.1416C12.7566 23.6633 12.8803 23.1687 12.6651 22.338C12.3842 21.2548 12.533 20.8673 12.7386 20.3309C12.8772 19.9702 13.0339 19.561 13.1109 18.7908C13.2047 17.8513 13.943 17.4994 14.4158 17.3385C14.1824 17.2685 13.85 17.1751 13.4436 17.0615C13.2109 16.9964 12.945 16.9632 12.6539 16.9632C11.0257 16.9632 8.73116 17.9923 6.70681 18.9004C4.88346 19.7183 3.16111 20.4908 2.037 20.4908C1.74422 20.4908 1.49348 20.438 1.29169 20.334C0.988731 20.1777 0.808258 19.9471 0.755653 19.6492C0.579597 18.6541 1.9558 17.1606 2.86641 16.172Z" fill="white"/>
</svg>
