<svg width="152" height="147" viewBox="0 0 152 147" fill="none" xmlns="http://www.w3.org/2000/svg">
<rect y="0.0404053" width="151.772" height="146.421" rx="60" fill="#FFF7DB"/>
<g clip-path="url(#clip0)">
<path d="M121.765 46.5718C121.231 45.6536 120.054 45.342 119.135 45.8759L109.743 51.305C108.825 51.8389 108.514 53.0163 109.048 53.9346C109.581 54.8528 110.759 55.1643 111.677 54.6305L121.069 49.2014C121.987 48.6672 122.299 47.49 121.765 46.5718Z" fill="black"/>
<path d="M121.069 96.8095L111.677 91.3804C110.759 90.8465 109.581 91.1581 109.048 92.0763C108.514 92.9945 108.825 94.172 109.743 94.7059L119.135 100.135C120.054 100.669 121.231 100.357 121.765 99.4391C122.299 98.5206 121.987 97.3434 121.069 96.8095Z" fill="black"/>
<path d="M76.1486 111.004C75.0835 110.925 74.1563 111.724 74.0771 112.789C74.0699 112.884 74.0699 112.98 74.0771 113.075V123.923C73.998 124.988 74.7972 125.915 75.8623 125.994C76.9274 126.074 77.8546 125.274 77.9338 124.209C77.941 124.114 77.941 124.018 77.9338 123.923V113.075C78.0127 112.01 77.2134 111.083 76.1486 111.004Z" fill="black"/>
<path d="M42.2568 51.305L32.8648 45.8759C31.9466 45.342 30.7691 45.6536 30.2353 46.5718C29.7014 47.49 30.0129 48.6675 30.9312 49.2014L40.3232 54.6305C41.2414 55.1643 42.4189 54.8528 42.9527 53.9346C43.4866 53.0161 43.1751 51.8389 42.2568 51.305Z" fill="black"/>
<path d="M76.1486 20.0053C75.0835 19.9261 74.1563 20.7254 74.0771 21.7905C74.0699 21.8858 74.0699 21.9814 74.0771 22.0768V32.9244C74.083 33.9839 74.9406 34.8415 76.0001 34.8474C77.0682 34.8474 77.9338 33.9818 77.9338 32.9137V22.0771C78.0127 21.012 77.2135 20.0844 76.1486 20.0053Z" fill="black"/>
<path d="M57.6198 37.3232L52.2013 27.9312C51.6675 27.013 50.49 26.7014 49.5718 27.2353C48.6536 27.7692 48.342 28.9466 48.8759 29.8648L54.2944 39.2569C54.8282 40.1751 56.0057 40.4866 56.9239 39.9528C57.8421 39.4186 58.1537 38.2414 57.6198 37.3232Z" fill="black"/>
<path d="M76.2865 55.8416C76.1911 55.8344 76.0955 55.8344 76.0001 55.8416C66.5236 55.8416 58.8416 63.5236 58.8416 73.0001C58.8416 74.0681 59.7073 74.9337 60.7753 74.9337C61.8391 74.9279 62.6983 74.0638 62.6983 73.0001C62.6925 65.6596 68.6385 59.7041 75.9789 59.6982C75.9861 59.6982 75.993 59.6982 76.0001 59.6982C77.0652 59.7774 77.9925 58.9782 78.0716 57.9131C78.1508 56.848 77.3516 55.9204 76.2865 55.8416Z" fill="black"/>
<path d="M128.708 72.8514C128.637 71.8965 127.878 71.1371 126.923 71.0662H116.075C115.01 70.987 114.083 71.7863 114.004 72.8514C113.925 73.9165 114.724 74.8437 115.789 74.9229C115.884 74.93 115.98 74.93 116.076 74.9229H126.923C127.988 74.844 128.787 73.9165 128.708 72.8514Z" fill="black"/>
<path d="M36.211 71.077C36.1156 71.0699 36.02 71.0699 35.9247 71.077H25.0771C24.012 71.1562 23.2128 72.0837 23.2919 73.1485C23.3628 74.1034 24.1219 74.8628 25.0771 74.9337H35.9247C36.9898 75.0129 37.917 74.2136 37.9962 73.1485C38.0753 72.0834 37.2761 71.1559 36.211 71.077Z" fill="black"/>
<path d="M76.0078 44.6222C60.3352 44.6201 47.6283 57.3235 47.6259 72.9961C47.6249 80.5254 50.6162 87.7466 55.9409 93.0697C61.2555 98.3976 68.4746 101.388 75.9999 101.378C91.6725 101.38 104.38 88.6768 104.382 73.0041C104.384 57.3314 91.6805 44.6243 76.0078 44.6222ZM93.339 90.3711C83.7629 99.9472 68.2368 99.9472 58.6607 90.3711C54.0542 85.7646 51.4701 79.5145 51.4786 73.0001C51.4693 66.4948 54.0542 60.2542 58.6607 55.661V55.6929C68.2368 46.1168 83.7629 46.1168 93.339 55.6929C102.915 65.269 102.915 80.795 93.339 90.3711Z" fill="black"/>
<path d="M103.129 116.144C103.128 116.141 103.126 116.138 103.124 116.135L97.695 106.743C97.1611 105.825 95.9837 105.514 95.0655 106.048C94.1472 106.581 93.8357 107.759 94.3696 108.677L99.7987 118.069C100.33 118.986 101.504 119.3 102.423 118.77C103.343 118.24 103.66 117.064 103.129 116.144Z" fill="black"/>
<path d="M102.492 27.2353C101.574 26.7014 100.397 27.013 99.8627 27.9312L94.4336 37.3232C93.896 38.2393 94.203 39.4176 95.1189 39.9549C95.1207 39.956 95.1223 39.957 95.1242 39.9581C96.0416 40.493 97.219 40.183 97.754 39.2654C97.7556 39.2624 97.7574 39.2595 97.759 39.2569L103.188 29.8648C103.722 28.9464 103.41 27.7692 102.492 27.2353Z" fill="black"/>
<path d="M56.9345 106.048C56.0163 105.514 54.8389 105.825 54.305 106.743L48.8759 116.135C48.342 117.054 48.6536 118.231 49.5718 118.765C50.49 119.299 51.6675 118.987 52.2013 118.069L57.6304 108.677C58.1643 107.759 57.8528 106.581 56.9345 106.048Z" fill="black"/>
<path d="M42.9527 92.0657C42.4189 91.1475 41.2414 90.8359 40.3232 91.3698L30.9312 96.7989C30.0129 97.3328 29.7014 98.5102 30.2353 99.4285C30.7691 100.347 31.9466 100.658 32.8648 100.124L42.2568 94.6953C43.1751 94.1611 43.4866 92.9839 42.9527 92.0657Z" fill="black"/>
</g>
<defs>
<clipPath id="clip0">
<rect width="106" height="106" fill="white" transform="translate(23 20)"/>
</clipPath>
</defs>
</svg>
