<svg width="152" height="147" viewBox="0 0 152 147" fill="none" xmlns="http://www.w3.org/2000/svg">
<rect width="151.772" height="146.421" rx="60" fill="#D2FEF6"/>
<g clip-path="url(#clip0)">
<path d="M107.835 116.542C100.078 118.075 85.2873 120.647 73.3747 120.647C56.0501 120.647 35.4576 115.045 33.8408 115.853C32.3856 116.58 30.6331 115.971 30.3517 114.464C36.4567 104.576 31.9685 118.124 31.9685 82.5533C31.9685 79.8547 32.6554 74.2197 33.956 66.2577C33.991 66.0431 33.9834 65.8236 33.9336 65.6119C33.8839 65.4001 33.7929 65.2003 33.6659 65.0237C33.5389 64.8471 33.3783 64.6973 33.1934 64.5828C33.0085 64.4683 32.8029 64.3913 32.5882 64.3562C32.3735 64.3212 32.1541 64.3288 31.9423 64.3785C31.7306 64.4283 31.5308 64.5193 31.3542 64.6463C31.1776 64.7733 31.0278 64.9339 30.9133 65.1188C30.7988 65.3037 30.7218 65.5093 30.6867 65.724C29.3392 73.9756 28.656 79.6379 28.656 82.5533C28.656 99.762 29.7207 106.582 30.1861 108.741L27.278 113.103C26.5807 114.15 27.1252 117.138 29.5346 118.627C30.3106 119.099 31.1859 119.385 32.0912 119.462C32.9966 119.538 33.9074 119.403 34.7518 119.068C65.228 125.672 81.4725 125.129 108.477 119.792C108.691 119.75 108.894 119.666 109.075 119.546C109.256 119.425 109.412 119.27 109.533 119.089C109.654 118.909 109.738 118.706 109.781 118.493C109.824 118.279 109.824 118.06 109.782 117.846C109.74 117.633 109.656 117.43 109.535 117.249C109.415 117.068 109.26 116.912 109.079 116.791C108.898 116.67 108.695 116.586 108.482 116.543C108.269 116.5 108.049 116.5 107.836 116.542L107.835 116.542Z" fill="black"/>
<path d="M31.9687 61.0221H70.0625C70.5017 61.0221 70.923 60.8476 71.2336 60.537C71.5442 60.2264 71.7187 59.8051 71.7187 59.3658C71.7187 58.9266 71.5442 58.5053 71.2336 58.1947C70.923 57.8841 70.5017 57.7096 70.0625 57.7096H31.9687C31.5295 57.7096 31.1082 57.5351 30.7976 57.2245C30.487 56.9139 30.3125 56.4926 30.3125 56.0533C30.3125 55.6141 30.487 55.1928 30.7976 54.8822C31.1082 54.5716 31.5295 54.3971 31.9687 54.3971H45.2187C45.658 54.3971 46.0793 54.2226 46.3899 53.912C46.7005 53.6014 46.875 53.1801 46.875 52.7408C46.875 52.3016 46.7005 51.8803 46.3899 51.5697C46.0793 51.2591 45.658 51.0846 45.2187 51.0846H31.9687C31.5295 51.0846 31.1082 50.9101 30.7976 50.5995C30.487 50.2889 30.3125 49.8676 30.3125 49.4283C30.3125 48.9891 30.487 48.5678 30.7976 48.2572C31.1082 47.9466 31.5295 47.7721 31.9687 47.7721H103.187C103.627 47.7721 104.048 47.5976 104.359 47.287C104.669 46.9764 104.844 46.5551 104.844 46.1158C104.844 45.6766 104.669 45.2553 104.359 44.9447C104.048 44.6341 103.627 44.4596 103.187 44.4596H31.9687C27.6625 44.4596 25.4265 49.5697 28.2682 52.7408C25.4282 55.9103 27.6596 61.0221 31.9687 61.0221Z" fill="black"/>
<path d="M45.5765 40.6144C57.0922 28.1414 66.9645 21.2721 73.375 21.2721C79.7855 21.2721 89.6578 28.1414 101.174 40.6144C101.472 40.9372 101.885 41.1283 102.324 41.1458C102.763 41.1633 103.191 41.0058 103.514 40.7078C103.837 40.4098 104.028 39.9958 104.045 39.5569C104.063 39.1179 103.905 38.69 103.607 38.3673C95.0121 29.0565 82.79 17.9596 73.375 17.9596C63.9601 17.9596 51.738 29.0565 43.1427 38.3673C42.9951 38.5271 42.8805 38.7144 42.8053 38.9185C42.7302 39.1226 42.6959 39.3395 42.7046 39.5569C42.7221 39.9958 42.9133 40.4098 43.236 40.7078C43.5588 41.0058 43.9867 41.1633 44.4256 41.1458C44.6429 41.1372 44.8564 41.0858 45.0539 40.9946C45.2514 40.9034 45.429 40.7742 45.5765 40.6144V40.6144Z" fill="black"/>
<path d="M58.4688 51.0846C58.0295 51.0846 57.6082 51.2591 57.2976 51.5697C56.987 51.8803 56.8125 52.3016 56.8125 52.7408C56.8125 53.1801 56.987 53.6014 57.2976 53.912C57.6082 54.2226 58.0295 54.3971 58.4688 54.3971H73.375C73.8143 54.3971 74.2355 54.2226 74.5462 53.912C74.8568 53.6014 75.0313 53.1801 75.0313 52.7408C75.0313 52.3016 74.8568 51.8803 74.5462 51.5697C74.2355 51.2591 73.8143 51.0846 73.375 51.0846H58.4688Z" fill="black"/>
<path d="M51.8438 54.3971C52.7585 54.3971 53.5 53.6556 53.5 52.7408C53.5 51.8261 52.7585 51.0846 51.8438 51.0846C50.929 51.0846 50.1875 51.8261 50.1875 52.7408C50.1875 53.6556 50.929 54.3971 51.8438 54.3971Z" fill="black"/>
<path d="M65.0938 34.5221C66.0085 34.5221 66.75 33.7806 66.75 32.8658C66.75 31.9511 66.0085 31.2096 65.0938 31.2096C64.179 31.2096 63.4375 31.9511 63.4375 32.8658C63.4375 33.7806 64.179 34.5221 65.0938 34.5221Z" fill="black"/>
<path d="M70.0625 27.8971C70.9772 27.8971 71.7188 27.1556 71.7188 26.2408C71.7188 25.3261 70.9772 24.5846 70.0625 24.5846C69.1478 24.5846 68.4063 25.3261 68.4063 26.2408C68.4063 27.1556 69.1478 27.8971 70.0625 27.8971Z" fill="black"/>
<path d="M73.375 32.8658C74.2897 32.8658 75.0313 32.1243 75.0313 31.2096C75.0313 30.2949 74.2897 29.5533 73.375 29.5533C72.4603 29.5533 71.7188 30.2949 71.7188 31.2096C71.7188 32.1243 72.4603 32.8658 73.375 32.8658Z" fill="black"/>
<path d="M78.3438 29.5533C79.2585 29.5533 80 28.8118 80 27.8971C80 26.9824 79.2585 26.2408 78.3438 26.2408C77.429 26.2408 76.6875 26.9824 76.6875 27.8971C76.6875 28.8118 77.429 29.5533 78.3438 29.5533Z" fill="black"/>
<path d="M81.6563 36.1783C82.571 36.1783 83.3125 35.4368 83.3125 34.5221C83.3125 33.6074 82.571 32.8658 81.6563 32.8658C80.7415 32.8658 80 33.6074 80 34.5221C80 35.4368 80.7415 36.1783 81.6563 36.1783Z" fill="black"/>
<path d="M88.2812 41.1471C89.196 41.1471 89.9375 40.4056 89.9375 39.4908C89.9375 38.5761 89.196 37.8346 88.2812 37.8346C87.3665 37.8346 86.625 38.5761 86.625 39.4908C86.625 40.4056 87.3665 41.1471 88.2812 41.1471Z" fill="black"/>
<path d="M76.6875 41.1471C77.6022 41.1471 78.3438 40.4056 78.3438 39.4908C78.3438 38.5761 77.6022 37.8346 76.6875 37.8346C75.7728 37.8346 75.0313 38.5761 75.0313 39.4908C75.0313 40.4056 75.7728 41.1471 76.6875 41.1471Z" fill="black"/>
<path d="M68.4063 41.1471C69.321 41.1471 70.0625 40.4056 70.0625 39.4908C70.0625 38.5761 69.321 37.8346 68.4063 37.8346C67.4915 37.8346 66.75 38.5761 66.75 39.4908C66.75 40.4056 67.4915 41.1471 68.4063 41.1471Z" fill="black"/>
<path d="M58.4688 41.1471C59.3835 41.1471 60.125 40.4056 60.125 39.4908C60.125 38.5761 59.3835 37.8346 58.4688 37.8346C57.554 37.8346 56.8125 38.5761 56.8125 39.4908C56.8125 40.4056 57.554 41.1471 58.4688 41.1471Z" fill="black"/>
<path d="M132.992 74.2707C132.989 73.8793 132.848 73.5016 132.593 73.2045C132.339 72.9074 131.987 72.71 131.601 72.6473C132.468 70.5319 132.94 68.2751 132.992 65.9894C132.989 65.5535 132.815 65.1362 132.507 64.828C132.198 64.5197 131.781 64.3454 131.345 64.3429C130.6 64.3556 129.857 64.4179 129.12 64.5292C129.885 62.2999 129.904 59.2122 129.633 58.1241C129.737 57.7235 129.667 58.0667 129.688 49.4288C129.688 48.9895 129.513 48.5682 129.202 48.2576C128.892 47.947 128.471 47.7725 128.031 47.7725C127.592 47.7725 127.171 47.947 126.86 48.2576C126.55 48.5682 126.375 48.9895 126.375 49.4288V56.7684C125.259 56.7631 124.147 56.8858 123.059 57.1343C122.998 53.2528 120.739 50.0457 119.75 48.8263V41.1471C119.75 40.7078 119.576 40.2866 119.265 39.9759C118.954 39.6653 118.533 39.4908 118.094 39.4908C117.654 39.4908 117.233 39.6653 116.923 39.9759C116.612 40.2866 116.438 40.7078 116.438 41.1471V48.8259C115.449 50.0457 113.187 53.2549 113.129 57.1382C112.041 56.8896 110.928 56.7667 109.813 56.7719V49.4283C109.813 48.9891 109.638 48.5678 109.327 48.2572C109.017 47.9466 108.596 47.7721 108.156 47.7721C107.717 47.7721 107.296 47.9466 106.985 48.2572C106.674 48.5678 106.5 48.9891 106.5 49.4283C106.521 58.0375 106.454 57.7268 106.553 58.1172C106.342 58.9373 106.195 62.0007 107.059 64.5263C105.56 64.3091 103.907 63.9793 103.321 65.347C102.654 65.7054 102.012 66.1091 101.401 66.5554C101.046 64.2311 99.6348 61.4832 98.8891 60.6439C98.7951 60.241 98.8926 60.577 94.9096 52.9123C94.7061 52.5229 94.3564 52.2304 93.9372 52.0989C93.5181 51.9675 93.0639 52.0079 92.6746 52.2114C92.2852 52.4148 91.9927 52.7646 91.8612 53.1837C91.7298 53.6028 91.7702 54.057 91.9737 54.4464L95.3735 60.9513C94.3822 61.4633 93.4529 62.0875 92.6039 62.8115C90.7524 59.4 87.2643 57.604 85.8234 56.9813L82.2666 50.1757C82.062 49.7884 81.7124 49.4978 81.2941 49.3677C80.8758 49.2376 80.4231 49.2784 80.0348 49.4813C79.6466 49.6842 79.3546 50.0326 79.2227 50.4503C79.0907 50.868 79.1296 51.321 79.3309 51.71L82.8875 58.5152C82.5769 60.054 82.0593 63.9448 83.8042 67.4136C82.725 67.6967 81.6821 68.1033 80.696 68.6253L77.2951 62.1181C77.0917 61.7288 76.7419 61.4362 76.3228 61.3048C75.9036 61.1733 75.4495 61.2138 75.0601 61.4172C74.6708 61.6206 74.3782 61.9704 74.2468 62.3896C74.1153 62.8087 74.1558 63.2629 74.3592 63.6522C78.3926 71.325 78.156 71.0196 78.4301 71.3267C78.635 72.2041 79.9559 74.977 81.8488 76.7741C81.1438 77.0158 80.4563 77.3058 79.7911 77.6419C79.4059 77.8461 79.1167 78.1939 78.9863 78.6099C78.8559 79.0259 78.8948 79.4765 79.0944 79.864C80.1994 81.8654 81.6622 83.6471 83.4102 85.1205C83.0972 85.3551 82.8772 85.6928 82.7893 86.074C82.7015 86.4552 82.7513 86.8551 82.9301 87.2031C84.0368 89.2077 85.5024 90.9919 87.254 92.4668C86.9397 92.7009 86.7187 93.0388 86.6302 93.4204C86.5417 93.8021 86.5915 94.2028 86.7708 94.5512C87.8741 96.55 89.3344 98.3296 91.0793 99.8019C90.7673 100.037 90.5482 100.374 90.4609 100.755C90.3736 101.136 90.4236 101.535 90.6021 101.882C90.7263 102.124 93.7135 107.818 99.2444 109.552C102.46 110.56 106.066 110.064 109.199 108.859C117.265 124.292 116.66 123.294 117.096 123.623C117.281 123.763 117.494 123.863 117.72 123.915C117.946 123.968 118.18 123.973 118.408 123.929C118.636 123.885 118.852 123.793 119.042 123.66C119.232 123.527 119.392 123.355 119.511 123.156C120.026 122.304 119.606 122.349 119.75 105.63C121.989 105.371 126.01 104.508 128.884 101.634C132.984 97.5348 132.993 91.1054 132.991 90.8336C132.988 90.4429 132.848 90.0658 132.594 89.7689C132.34 89.472 131.989 89.2743 131.604 89.2109C132.469 87.098 132.939 84.8445 132.991 82.562C132.988 82.1701 132.847 81.7918 132.591 81.4944C132.336 81.1971 131.983 81 131.596 80.9381C132.466 78.8199 132.939 76.5599 132.992 74.2707V74.2707ZM116.265 77.4215C114.288 75.0893 111.507 73.7464 108.536 73.0817C107.379 71.3132 106.878 69.2576 106.663 67.8191C112.366 68.6738 115.41 71.7117 116.265 77.4215ZM116.266 85.7128C114.295 83.3858 111.516 82.0393 108.541 81.372C107.382 79.6013 106.879 77.5419 106.663 76.1004C112.373 76.9563 115.415 80.0025 116.266 85.7128ZM116.263 93.9809C114.292 91.6546 111.509 90.3081 108.529 89.6427C107.376 87.8749 106.877 85.8217 106.662 84.386C112.468 85.2448 115.421 88.3844 116.263 93.9815V93.9809ZM93.7926 66.3409C94.674 65.172 96.025 64.3327 96.9987 63.8379C98.9365 67.4866 97.9121 68.9878 97.9461 69.7824C96.6422 71.3314 95.7412 73.1784 95.323 75.1594L93.6668 71.9892C94.0425 70.1287 94.0851 68.2163 93.7926 66.3409ZM85.9192 60.7407C89.4909 62.8295 90.9594 65.6312 90.6344 69.7627C87.0625 67.6744 85.5946 64.8729 85.9192 60.7407ZM82.1341 71.6109C83.0993 71.0933 84.563 70.4609 86.0273 70.407C87.3984 71.7147 88.9903 72.7692 90.7292 73.5216L92.3921 76.7033C90.5246 75.9124 88.4905 75.5956 86.471 75.7811C85.8687 75.3232 84.0259 75.293 82.1341 71.6109ZM90.6985 94.5634C92.4492 93.9583 95.2998 93.2968 97.9494 94.1276C98.1572 94.1936 98.376 94.2179 98.5931 94.1992C98.8103 94.1804 99.0217 94.119 99.2151 94.0183C99.4085 93.9177 99.5801 93.7799 99.7201 93.6128C99.8602 93.4457 99.9658 93.2526 100.031 93.0446C100.096 92.8366 100.12 92.6177 100.1 92.4006C100.081 92.1835 100.018 91.9723 99.9172 91.7793C99.8158 91.5863 99.6774 91.4151 99.5098 91.2757C99.3422 91.1363 99.1487 91.0314 98.9405 90.9669C96.0627 90.0649 93.1417 90.4363 90.9648 91.0176C89.1135 89.9845 87.7125 88.3883 86.8544 87.2103C89.0889 86.4325 91.7681 86.0456 94.1094 86.7807C94.3169 86.8458 94.5352 86.8695 94.7519 86.8502C94.9685 86.831 95.1793 86.7692 95.3721 86.6686C95.5649 86.5679 95.7359 86.4302 95.8755 86.2634C96.0151 86.0966 96.1205 85.9039 96.1856 85.6964C96.2507 85.4889 96.2743 85.2705 96.2551 85.0539C96.2359 84.8372 96.1741 84.6265 96.0734 84.4337C95.9727 84.2409 95.8351 84.0698 95.6683 83.9303C95.5015 83.7907 95.3088 83.6853 95.1013 83.6202C92.2211 82.7163 89.2959 83.0889 87.1179 83.6713C85.2723 82.6382 83.8752 81.0462 83.0187 79.8708C84.7617 79.2642 87.6043 78.6034 90.2743 79.4419C94.4684 80.7553 96.9407 85.4224 96.965 85.4696C96.9909 85.5199 97.0195 85.5688 97.0505 85.6162C98.4968 87.9409 98.5786 89.7154 100.197 89.7154C100.482 89.7145 100.761 89.6405 101.009 89.5004C101.257 89.3603 101.464 89.1588 101.611 88.9154C101.759 88.6719 101.841 88.3946 101.85 88.1102C101.859 87.8259 101.795 87.5439 101.664 87.2915C101.148 85.9946 97.072 80.4387 98.7775 74.9977C99.6551 72.1958 102.029 70.1636 103.523 69.1147C103.752 70.3258 104.105 71.51 104.578 72.6484C104.191 72.711 103.84 72.9084 103.585 73.2055C103.331 73.5026 103.19 73.8803 103.188 74.2715C103.24 76.5607 103.712 78.8208 104.581 80.9393C104.195 81.0014 103.842 81.1985 103.587 81.4956C103.332 81.7927 103.19 82.1706 103.188 82.5623C103.24 84.8447 103.71 87.0982 104.575 89.2111C104.189 89.2745 103.838 89.4723 103.584 89.7694C103.331 90.0665 103.19 90.4438 103.188 90.8346C103.186 91.0669 103.196 95.7942 105.755 99.7222C102.419 97.5534 98.7343 97.294 94.782 98.3523C92.9453 97.3209 91.5534 95.7359 90.6985 94.5634V94.5634ZM94.5268 101.89C96.8248 101.09 99.4603 100.731 101.782 101.459C104.435 102.291 106.398 104.466 107.49 105.962C102.078 107.843 97.9467 106.579 94.5268 101.89ZM106.664 92.6643C112.368 93.5192 115.409 96.5551 116.265 102.265C110.561 101.41 107.52 98.3739 106.664 92.6635V92.6643ZM116.438 115.558C111.522 106.207 111.382 105.563 109.83 103.557C112.225 104.934 114.807 105.444 116.438 105.631V115.558ZM116.438 69.3487C115.149 67.7824 113.492 66.5591 111.616 65.7877C111.293 65.101 109.675 64.2228 109.704 60.0832C110.798 60.0731 112.389 60.1892 113.712 60.8196C114.322 62.6139 115.245 64.2859 116.438 65.7584V69.3487ZM118.094 62.3823C115.895 58.8775 115.893 55.7134 118.094 52.2028C120.292 55.7076 120.295 58.871 118.094 62.3819V62.3823ZM119.75 65.7588C120.945 64.2844 121.868 62.6098 122.478 60.8128C123.798 60.1871 125.38 60.0716 126.473 60.0793C126.514 64.2654 124.921 65.0296 124.565 65.7877C122.692 66.5558 121.038 67.7746 119.75 69.3359V65.7588ZM119.914 102.265C120.768 96.5613 123.804 93.5194 129.515 92.6639C128.66 98.367 125.624 101.409 119.914 102.265V102.265ZM127.65 89.6406C124.659 90.3096 121.881 91.6621 119.916 93.9806C120.758 88.385 123.702 85.263 129.516 84.392C129.301 85.8269 128.801 87.8757 127.65 89.6402V89.6406ZM127.636 81.3729C124.69 82.0337 121.896 83.3703 119.914 85.7112C120.756 80.0632 123.74 76.966 129.517 76.1006C129.3 77.5417 128.797 79.6019 127.636 81.3733V81.3729ZM127.64 73.0837C124.657 73.7512 121.883 75.0973 119.914 77.42C120.769 71.7167 123.807 68.6746 129.516 67.8193C129.3 69.2584 128.799 71.3151 127.64 73.0833V73.0837Z" fill="black"/>
</g>
<defs>
<clipPath id="clip0">
<rect width="106" height="106" fill="white" transform="translate(27 17.9596)"/>
</clipPath>
</defs>
</svg>
