<svg width="152" height="147" viewBox="0 0 152 147" fill="none" xmlns="http://www.w3.org/2000/svg">
<rect width="151.772" height="146.421" rx="60" fill="#FFE8DB"/>
<g clip-path="url(#clip0)">
<path d="M77 110.917C75.8572 110.917 74.9297 111.844 74.9297 112.987C74.9297 114.13 75.8572 115.057 77 115.057C78.1428 115.057 79.0703 114.13 79.0703 112.987C79.0703 111.844 78.1428 110.917 77 110.917Z" fill="black"/>
<path d="M77 17.9596C75.8566 17.9596 74.9297 18.8867 74.9297 20.0299V33.694C74.9297 34.8372 75.8568 35.7643 77 35.7643C78.1432 35.7643 79.0703 34.8372 79.0703 33.694V20.0299C79.0703 18.8867 78.1432 17.9596 77 17.9596Z" fill="black"/>
<path d="M47.7221 49.1051L36.0227 37.4058C35.2141 36.5973 33.9031 36.5973 33.0947 37.4058C32.2862 38.2142 32.2862 39.5252 33.0947 40.3338L44.794 52.0332C45.6027 52.8416 46.9134 52.8416 47.7221 52.0332C48.5305 51.2247 48.5305 49.9138 47.7221 49.1051Z" fill="black"/>
<path d="M120.918 37.3934C120.109 36.5852 118.799 36.5852 117.99 37.3934L106.278 49.105C105.47 49.9134 105.47 51.2244 106.278 52.033C107.087 52.8415 108.397 52.8413 109.206 52.033L120.918 40.3215C121.726 39.513 121.726 38.2021 120.918 37.3934Z" fill="black"/>
<path d="M129.59 57.3018C129.2 56.7767 128.584 56.4674 127.93 56.4674C123.758 56.4674 119.871 58.3781 117.326 61.5726C116.145 60.9422 114.818 60.6081 113.437 60.6081C108.871 60.6081 105.156 64.323 105.156 68.8893C105.156 72.3198 107.253 75.27 110.233 76.5254L109.852 76.9838C107.7 79.5721 103.744 81.3112 100.007 81.3112C96.8369 81.3112 93.158 80.0489 90.9088 77.7997L89.8838 76.7747C93.2153 75.7025 95.6328 72.573 95.6328 68.8893C95.6328 64.323 91.9178 60.6081 87.3516 60.6081H87.1416C87.4389 59.1398 87.4188 57.6017 87.0681 56.0881C86.1851 52.286 83.0141 49.2006 79.1769 48.4108C72.594 47.055 66.6484 52.0345 66.6484 58.5377C66.6484 59.2356 66.719 59.9296 66.8571 60.6081H66.6484C62.0822 60.6081 58.3672 64.323 58.3672 68.8893C58.3672 72.573 60.7847 75.7025 64.1165 76.7747L63.0914 77.7997C60.9584 79.933 57.3869 81.3112 53.9926 81.3112C50.3787 81.3112 46.3923 79.687 44.1485 76.9842L43.7674 76.5254C46.7467 75.27 48.8438 72.3198 48.8438 68.8893C48.8438 64.323 45.1288 60.6081 40.5625 60.6081C39.1822 60.6081 37.8554 60.9422 36.6736 61.5726C34.1286 58.3781 30.242 56.4674 26.0703 56.4674C25.4159 56.4674 24.8 56.7767 24.4093 57.3018C24.0186 57.8268 23.8994 58.5056 24.0874 59.1325L36.9519 102.014H35.5938C34.4503 102.014 33.5234 102.941 33.5234 104.085C33.5234 105.228 34.4503 106.155 35.5938 106.155H37.6641V117.749C37.6641 121.173 40.4503 123.96 43.875 123.96H110.125C113.55 123.96 116.336 121.173 116.336 117.749V106.155H118.406C119.549 106.155 120.477 105.228 120.477 104.085C120.477 102.941 119.549 102.014 118.406 102.014H117.048L129.913 59.1325C130.101 58.5059 129.981 57.8268 129.59 57.3018ZM112.195 110.917H85.2812C84.138 110.917 83.2109 111.844 83.2109 112.987C83.2109 114.13 84.138 115.057 85.2812 115.057H112.195V117.749C112.195 118.89 111.267 119.819 110.125 119.819H43.875C42.7334 119.819 41.8047 118.89 41.8047 117.749V115.057H68.7188C69.8622 115.057 70.7891 114.13 70.7891 112.987C70.7891 111.844 69.8622 110.917 68.7188 110.917H41.8047V106.155H112.195V110.917ZM112.725 102.014H41.2747L28.9919 61.0714C31.2405 61.8043 33.1676 63.3701 34.3358 65.5091C35.0021 66.7287 36.6542 66.954 37.6249 65.9724C38.4055 65.1834 39.4487 64.7487 40.5625 64.7487C42.8457 64.7487 44.7031 66.6062 44.7031 68.8893C44.7031 71.3894 42.5024 73.2862 40.0988 73.0045C39.2576 72.9076 38.4421 73.3297 38.0386 74.074C37.6351 74.8181 37.7251 75.7329 38.2661 76.3838L40.9631 79.6297C44.0344 83.3289 49.2079 85.4518 53.9926 85.4518C58.4968 85.4518 63.1053 83.6417 66.0193 80.7278L70.1827 76.5644C70.7748 75.9723 70.9518 75.0818 70.6313 74.3081C70.311 73.5345 69.556 73.0299 68.7188 73.0299H66.6484C64.3653 73.0299 62.5078 71.1724 62.5078 68.8893C62.5078 66.6062 64.3653 64.7487 66.6484 64.7487H69.8264C70.5663 64.7487 71.2499 64.3539 71.6197 63.7129C71.9894 63.0719 71.989 62.2825 71.6186 61.642C71.076 60.7035 70.7891 59.6298 70.7891 58.5377C70.7891 54.7151 74.262 51.6266 78.3422 52.4665C80.5893 52.9291 82.5188 54.8035 83.0345 57.0241C83.5118 59.0826 82.9428 60.6714 82.3816 61.642C82.0112 62.2825 82.0106 63.0719 82.3803 63.7129C82.7499 64.3541 83.4337 64.7489 84.1736 64.7489H87.3516C89.6347 64.7489 91.4922 66.6064 91.4922 68.8895C91.4922 71.1727 89.6347 73.0301 87.3516 73.0301H85.2812C84.4438 73.0301 83.689 73.5347 83.3685 74.3081C83.048 75.0818 83.2254 75.9723 83.8173 76.5644L87.9807 80.7278C91.0133 83.7602 95.7363 85.4518 100.007 85.4518C104.982 85.4518 110.096 83.167 113.036 79.6303L115.734 76.384C116.275 75.7327 116.365 74.8181 115.962 74.074C115.558 73.3297 114.742 72.9061 113.901 73.0045C113.755 73.0217 113.603 73.0299 113.437 73.0299C111.154 73.0299 109.297 71.1724 109.297 68.8893C109.297 66.6062 111.154 64.7487 113.437 64.7487C114.551 64.7487 115.595 65.1834 116.375 65.9724C116.835 66.4378 117.488 66.6583 118.136 66.5668C118.784 66.4755 119.351 66.0832 119.664 65.5091C120.832 63.3701 122.759 61.8043 125.008 61.0714L112.725 102.014Z" fill="black"/>
<path d="M77 81.3112C72.4337 81.3112 68.7188 85.0261 68.7188 89.5924C68.7188 94.1587 72.4337 97.8737 77 97.8737C81.5663 97.8737 85.2812 94.1587 85.2812 89.5924C85.2812 85.0261 81.5663 81.3112 77 81.3112ZM77 93.733C74.7169 93.733 72.8594 91.8755 72.8594 89.5924C72.8594 87.3093 74.7169 85.4518 77 85.4518C79.2831 85.4518 81.1406 87.3093 81.1406 89.5924C81.1406 91.8755 79.2831 93.733 77 93.733Z" fill="black"/>
</g>
<defs>
<clipPath id="clip0">
<rect width="106" height="106" fill="white" transform="translate(24 17.9596)"/>
</clipPath>
</defs>
</svg>
